# AST/ASF file generated using VICON BodyLanguage
# -----------------------------------------------
:version 1.10
:name VICON
:units
  mass 1.0
  length 0.45
  angle deg
:documentation
   .ast/.asf automatically generated from VICON data using
   VICON BodyBuilder and BodyLanguage model FoxedUp or BRILLIANT.MOD
:root
   order TX TY TZ RX RY RZ
   axis XYZ
   position 0 0 0  
   orientation 0 0 0 
:bonedata
  begin
     id 1 
     name lhipjoint
     direction 0.578396 -0.714046 0.394458 
     length 2.21935 
     axis 0 0 0  XYZ
  end
  begin
     id 2 
     name lfemur
     direction 0.34202 -0.939693 0  
     length 6.39105  
     axis 0 0 20  XYZ
    dof rx ry rz
    limits (-160.0 20.0)
           (-70.0 70.0)
           (-60.0 70.0)
  end
  begin
     id 3 
     name ltibia
     direction 0.34202 -0.939693 0   
     length 6.99037   
     axis 0 0 20   XYZ
    dof rx
    limits (-10.0 170.0)
  end
  begin
     id 4 
     name lfoot
     direction 0.0582372 -0.160005 0.985397   
     length 2.06111   
     axis -90 7.62852e-016 20   XYZ
    dof rx rz
    limits (-45.0 90.0)
           (-70.0 20.0)
  end
  begin
     id 5 
     name ltoes
     direction 1.53556e-011 -4.21875e-011 1   
     length 1.04074   
     axis -90 7.62852e-016 20   XYZ
    dof rx
    limits (-90.0 20.0)
  end
  begin
     id 6 
     name rhipjoint
     direction -0.558179 -0.726269 0.40121   
     length 2.182  
     axis 0 0 0  XYZ 
  end
  begin
     id 7 
     name rfemur
     direction -0.34202 -0.939693 0   
     length 6.51172   
     axis 0 0 -20   XYZ
    dof rx ry rz
    limits (-160.0 20.0)
           (-70.0 70.0)
           (-70.0 60.0)
  end
  begin
     id 8 
     name rtibia
     direction -0.34202 -0.939693 0   
     length 7.02607   
     axis 0 0 -20   XYZ
    dof rx
    limits (-10.0 170.0)
 end
 begin
     id 9 
     name rfoot
     direction -0.0788856 -0.216737 0.973038   
     length 1.96734  
     axis -90 -7.62852e-016 -20   XYZ
    dof rx rz
    limits (-45.0 90.0)
           (-20.0 70.0)
  end
  begin
     id 10 
     name rtoes
     direction -1.53567e-011 -4.21783e-011 1   
     length 0.990825   
     axis -90 -7.62852e-016 -20   XYZ
    dof rx
    limits (-90.0 20.0)
  end
  begin
     id 11 
     name lowerback
     direction 0.00668177 0.999323 -0.0361741   
     length 1.7655   
     axis 0 0 0   XYZ
    dof rx ry rz
    limits (-20.0 45.0)
           (-30.0 30.0)
           (-30.0 30.0)
  end
  begin
     id 12 
     name upperback
     direction -0.00222086 0.99851 0.0545167   
     length 1.74912   
     axis 0 0 0   XYZ
    dof rx ry rz
    limits (-20.0 45.0)
           (-30.0 30.0)
           (-30.0 30.0)
  end
  begin
     id 13 
     name thorax
     direction -0.00733971 0.997496 0.0703443   
     length 1.75715   
     axis 0 0 0   XYZ
    dof rx ry rz
    limits (-20.0 45.0)
           (-30.0 30.0)
           (-30.0 30.0)
  end
  begin
     id 14 
     name lowerneck
     direction 0.0279797 0.994795 0.0979765   
     length 1.46939   
     axis 0 0 0   XYZ
    dof rx ry rz
    limits (-20.0 45.0)
           (-30.0 30.0)
           (-30.0 30.0)
  end
  begin
     id 15 
     name upperneck
     direction 0.00339187 0.976776 -0.214238   
     length 1.48018   
     axis 0 0 0   XYZ
    dof rx ry rz
    limits (-20.0 45.0)
           (-30.0 30.0)
           (-30.0 30.0)
  end
  begin
     id 16
     name head
     direction -0.00263506 0.996603 -0.0823096  
     length 1.4976  
     axis 0 0 0   XYZ
    dof rx ry rz
    limits (-20.0 45.0)
           (-30.0 30.0)
           (-30.0 30.0)
  end
  begin
     id 17 
     name lclavicle
     direction 0.894044 0.44508 -0.0508781  
     length 3.03024  
     axis 0 0 0   XYZ
    dof ry rz
    limits (-20.0 10.0)
           (0.0 20.0)
  end
  begin
     id 18 
     name lhumerus
     direction 1 -4.48961e-011 -2.39475e-018   
     length 4.4661   
     axis 180 -30 -90   XYZ
    dof rx ry rz
    limits (-60.0 90.0)
           (-90.0 90.0)
           (-90.0 90.0)
  end
  begin
     id 19
     name lradius
     direction 1 -4.48961e-011 9.29328e-028   
     length 3.41414   
     axis 180 -30 -90   XYZ
    dof rx
    limits (-10.0 170.0)
  end
  begin
     id 20
     name lwrist
     direction 1 -4.48985e-011 1.53461e-026   
     length 1.70707   
     axis -1.09697e-014 90 90   XYZ
    dof ry
    limits (-180.0 0.0)
 end
  begin
     id 21 
     name lhand
     direction 1 -4.48966e-011 3.06923e-026   
     length 0.328298   
     axis -1.95843e-014 90 90   XYZ
    dof rx rz
    limits (-90.0 90.0)
           (-45.0 45.0)
  end
  begin
     id 22 
     name lfingers
     direction 1 -4.48893e-011 6.13845e-026   
     length 0.264682   
     axis -3.91686e-014 90 90   XYZ
    dof rx
    limits (0.0 90.0)
  end
  begin
     id 23
     name lthumb
     direction 0.707107 -6.34876e-011 0.707107   
     length 0.380032   
     axis -90 45 2.85299e-015   XYZ
    dof rx rz
    limits (-45.0 45.0)
           (-45.0 45.0)
  end
  begin
     id 24 
     name rclavicle
     direction -0.936955 0.347862 -0.0332887   
     length 3.26927  
     axis 0 0 0   XYZ 
    dof ry rz
    limits (-10.0 20.0)
           (-20.0 0.0)
  end
  begin
     id 25 
     name rhumerus
     direction -1 -4.4896e-011 1.78637e-018  
     length 4.40431   
     axis 180 30 90   XYZ
    dof rx ry rz
    limits (-90.0 60.0)
           (-90.0 90.0)
           (-90.0 90.0)
  end
  begin
     id 26 
     name rradius
     direction -1 -4.48955e-011 9.34036e-027   
     length 3.04688   
     axis 180 30 90   XYZ
    dof rx
    limits (-10.0 170.0)
  end
  begin
     id 27 
     name rwrist
     direction -1 -4.49011e-011 1.53461e-026   
     length 1.52344   
     axis -1.09697e-014 -90 -90   XYZ
    dof ry
    limits (-180.0 0.0)
  end
  begin
     id 28
     name rhand
     direction -1 -4.48834e-011 3.06923e-026   
     length 0.500489   
     axis -1.95843e-014 -90 -90   XYZ
    dof rx rz
    limits (-90.0 90.0)
           (-45.0 45.0)
  end
  begin
     id 29
     name rfingers
     direction -1 -4.48967e-011 6.13845e-026   
     length 0.403507   
     axis -3.91686e-014 -90 -90   XYZ
    dof rx
    limits (0.0 90.0)
  end
  begin
     id 30
     name rthumb
     direction -0.707107 -6.34826e-011 0.707107   
     length 0.579358   
     axis -90 -45 -2.85299e-015   XYZ
    dof rx rz
    limits (-45.0 45.0)
           (-45.0 45.0)
  end
:hierarchy
  begin
    root lhipjoint rhipjoint lowerback
    lhipjoint lfemur
    lfemur ltibia
    ltibia lfoot
    lfoot ltoes
    rhipjoint rfemur
    rfemur rtibia
    rtibia rfoot
    rfoot rtoes
    lowerback upperback
    upperback thorax
    thorax lowerneck lclavicle rclavicle
    lowerneck upperneck
    upperneck head
    lclavicle lhumerus
    lhumerus lradius
    lradius lwrist
    lwrist lhand lthumb
    lhand lfingers
    rclavicle rhumerus
    rhumerus rradius
    rradius rwrist
    rwrist rhand rthumb
    rhand rfingers
  end

#!OML:ASF H:\IndianDance\Patient Classification 1\Patient 1\Session 1\dancer.ASF
:FULLY-SPECIFIED
:DEGREES
824
root 11.6386 14.6211 5.07577 188.293 14.1267 -172.563
lowerback 6.20276 0.953808 1.17553
upperback -5.8937 1.64468 0.519338
thorax -9.72585 0.816968 -0.358562
lowerneck -14.8756 -9.60646 -5.60018
upperneck 23.7063 -12.5475 3.99439
head 10.6916 -5.53526 0.639021
rclavicle 4.46769e-014 3.26007e-014
rhumerus -6.4857 24.9733 -24.0743
rradius 77.4888
rwrist -40.0354
rhand -35.7241 -14.7849
rfingers 7.12502
rthumb -8.84357 -44.5796
lclavicle 4.46769e-014 3.26007e-014
lhumerus -2.63834 -34.9689 6.76586
lradius 77.1729
lwrist 16.8153
lhand -20.2837 20.9257
lfingers 7.12502
lthumb 6.06591 50.8189
rfemur -35.7423 -22.7599 22.748
rtibia 63.7899
rfoot -12.1154 1.32292
rtoes -14.4992
lfemur -40.6982 25.2348 -16.1167
ltibia 74.048
lfoot -17.2577 -6.27305
ltoes -21.4508
825
root 11.6738 14.6162 5.06008 188.255 14.0613 -172.772
lowerback 6.19358 1.01918 1.19556
upperback -5.77765 1.72503 0.528493
thorax -9.59095 0.852833 -0.36926
lowerneck -15.1971 -9.41928 -5.52553
upperneck 24.1765 -12.2415 3.82901
head 10.8933 -5.38057 0.595859
rclavicle -5.31749e-015 1.11319e-014
rhumerus -6.56194 26.4568 -23.3653
rradius 80.4528
rwrist -38.0826
rhand -36.6151 -12.3011
rfingers 7.12502
rthumb -9.70326 -42.0576
lclavicle -5.31749e-015 1.11319e-014
lhumerus -1.93527 -36.4508 6.58972
lradius 80.8209
lwrist 16.8265
lhand -21.7325 19.5098
lfingers 7.12502
lthumb 4.66708 49.4384
rfemur -36.8041 -23.4765 22.5641
rtibia 65.3568
rfoot -10.9668 2.18671
rtoes -13.2801
lfemur -41.0354 25.2979 -17.3132
ltibia 73.2452
lfoot -16.8176 -6.71906
ltoes -21.0541
826
root 11.7075 14.6058 5.04445 188.183 14.1235 -172.957
lowerback 6.23657 1.11439 1.21079
upperback -5.65826 1.84629 0.551271
thorax -9.48378 0.908907 -0.369681
lowerneck -15.4391 -9.22819 -5.47834
upperneck 24.5394 -11.9346 3.70991
head 11.0474 -5.229 0.579064
rclavicle -1.34428e-014 -9.54166e-015
rhumerus -6.51306 27.9964 -22.6178
rradius 83.239
rwrist -35.9378
rhand -37.3926 -9.44897
rfingers 7.12502
rthumb -10.4534 -39.1691
lclavicle -1.34428e-014 -9.54166e-015
lhumerus -1.10864 -37.9678 6.30252
lradius 84.3975
lwrist 16.6889
lhand -23.2636 17.9369
lfingers 7.12502
lthumb 3.18854 47.8928
rfemur -37.871 -24.0654 22.3833
rtibia 66.9117
rfoot -10.0035 2.82872
rtoes -11.9427
lfemur -41.1607 25.422 -18.4015
ltibia 72.4022
lfoot -16.2579 -6.54384
ltoes -19.4037
827
root 11.7403 14.5895 5.02901 188.08 14.31 -173.113
lowerback 6.33263 1.23825 1.22039
upperback -5.54136 2.00737 0.587406
thorax -9.41131 0.984817 -0.359854
lowerneck -15.5912 -9.03471 -5.45523
upperneck 24.7991 -11.6296 3.63238
head 11.1516 -5.08174 0.58634
rclavicle -7.70291e-015 -2.54444e-014
rhumerus -6.34633 29.5842 -21.8564
rradius 85.8288
rwrist -33.709
rhand -38.114 -6.25151
rfingers 7.12502
rthumb -11.1492 -35.9353
lclavicle -7.70291e-015 -2.54444e-014
lhumerus -0.148598 -39.5047 5.91186
lradius 87.8614
lwrist 16.3617
lhand -24.8901 16.1978
lfingers 7.12502
lthumb 1.61774 46.1714
rfemur -38.904 -24.5069 22.2237
rtibia 68.3764
rfoot -9.35595 3.17361
rtoes -10.6046
lfemur -41.0853 25.6241 -19.3607
ltibia 71.5803
lfoot -15.7983 -5.73626
ltoes -16.8841
828
root 11.7724 14.5683 5.01382 187.952 14.6007 -173.233
lowerback 6.48663 1.37785 1.23927
upperback -5.43883 2.19341 0.632618
thorax -9.3891 1.07229 -0.351357
lowerneck -15.6559 -8.83339 -5.44439
upperneck 24.9743 -11.3199 3.58769
head 11.2106 -4.93453 0.613196
rclavicle 1.08089e-014 3.18055e-015
rhumerus -6.06913 31.2259 -21.1273
rradius 88.1981
rwrist -31.4988
rhand -38.8136 -2.61127
rfingers 7.12502
rthumb -11.8239 -32.2575
lclavicle 1.08089e-014 3.18055e-015
lhumerus 0.938092 -41.0601 5.42088
lradius 91.1578
lwrist 15.795
lhand -26.6162 14.2723
lfingers 7.12502
lthumb -0.0493667 44.252
rfemur -39.8664 -24.8055 22.1049
rtibia 69.6722
rfoot -9.10876 3.18081
rtoes -9.40966
lfemur -40.8291 25.882 -20.1609
ltibia 70.8256
lfoot -15.5874 -4.54549
ltoes -13.4552
829
root 11.8039 14.5432 4.99884 187.802 14.9675 -173.316
lowerback 6.68963 1.52544 1.25627
upperback -5.34812 2.39342 0.694702
thorax -9.40984 1.1671 -0.328311
lowerneck -15.6435 -8.62073 -5.42107
upperneck 25.0753 -10.9995 3.54544
head 11.2255 -4.78535 0.644924
rclavicle -1.635e-014 -3.97569e-015
rhumerus -5.67203 32.9122 -20.4363
rradius 90.3155
rwrist -29.3512
rhand -39.5344 1.41945
rfingers 7.12502
rthumb -12.5189 -28.1855
lclavicle -1.635e-014 -3.97569e-015
lhumerus 2.14871 -42.6107 4.86484
lradius 94.241
lwrist 14.9732
lhand -28.3883 12.1842
lfingers 7.12502
lthumb -1.76091 42.1567
rfemur -40.7189 -24.9738 22.0384
rtibia 70.7279
rfoot -9.27782 2.85646
rtoes -8.44909
lfemur -40.4133 26.1579 -20.7754
ltibia 70.1656
lfoot -15.7183 -3.20051
ltoes -9.56521
830
root 11.8348 14.5151 4.98385 187.638 15.379 -173.361
lowerback 6.93491 1.67137 1.27841
upperback -5.27534 2.59559 0.770282
thorax -9.47617 1.26304 -0.296898
lowerneck -15.5598 -8.40605 -5.40677
upperneck 25.1271 -10.6817 3.52787
head 11.2105 -4.63768 0.689831
rclavicle -3.01035e-014 3.18055e-015
rhumerus -5.17396 34.642 -19.8143
rradius 92.1598
rwrist -27.2755
rhand -40.2969 5.75708
rfingers 7.12502
rthumb -13.254 -23.8015
lclavicle -3.01035e-014 3.18055e-015
lhumerus 3.4747 -44.1495 4.27124
lradius 97.0885
lwrist 13.8889
lhand -30.1481 10.0009
lfingers 7.12502
lthumb -3.46046 39.9526
rfemur -41.4392 -25.0249 22.0298
rtibia 71.4805
rfoot -9.77874 2.26576
rtoes -7.78444
lfemur -39.8766 26.4055 -21.1905
ltibia 69.6156
lfoot -16.2034 -1.87195
ltoes -5.85305
831
root 11.8657 14.4849 4.96846 187.469 15.7954 -173.364
lowerback 7.20158 1.80356 1.30665
upperback -5.21728 2.78388 0.862104
thorax -9.57252 1.35256 -0.251826
lowerneck -15.4342 -8.19353 -5.37928
upperneck 25.1603 -10.3701 3.50648
head 11.1796 -4.49293 0.731876
rclavicle 3.62534e-014 1.23246e-014
rhumerus -4.58662 36.3955 -19.2834
rradius 93.7093
rwrist -25.2307
rhand -41.0757 10.429
rfingers 7.12502
rthumb -14.0046 -19.0792
lclavicle 3.62534e-014 1.23246e-014
lhumerus 4.89695 -45.6652 3.66308
lradius 99.6981
lwrist 12.555
lhand -31.8641 7.7776
lfingers 7.12502
lthumb -5.11756 37.6958
rfemur -42.0066 -24.9794 22.0801
rtibia 71.8783
rfoot -10.4849 1.54064
rtoes -7.38468
lfemur -39.2589 26.5711 -21.3933
ltibia 69.1803
lfoot -16.9892 -0.692393
ltoes -2.7055
832
root 11.8971 14.4523 4.95238 187.306 16.1863 -173.316
lowerback 7.48388 1.90857 1.36571
upperback -5.17674 2.94213 0.956831
thorax -9.69687 1.42568 -0.218401
lowerneck -15.2986 -7.98668 -5.32975
upperneck 25.2122 -10.075 3.4964
head 11.154 -4.35072 0.771853
rclavicle 7.85199e-015 4.37326e-015
rhumerus -3.94504 38.1491 -18.9067
rradius 94.9459
rwrist -23.0991
rhand -41.8391 15.3869
rfingers 7.12502
rthumb -14.7402 -14.069
lclavicle 7.85199e-015 4.37326e-015
lhumerus 6.39946 -47.1552 3.02655
lradius 102.07
lwrist 10.9921
lhand -33.5056 5.59508
lfingers 7.12502
lthumb -6.70236 35.469
rfemur -42.4064 -24.8439 22.1973
rtibia 71.8886
rfoot -11.2864 0.837145
rtoes -7.28674
lfemur -38.6055 26.6252 -21.374
ltibia 68.8635
lfoot -17.9574 0.275811
ltoes -0.650442
